<svg width="355" height="123" viewBox="0 0 355 123" fill="none" xmlns="http://www.w3.org/2000/svg">
<path d="M258.112 18H272.032C276.885 18 280.645 19.2267 283.312 21.68C285.979 24.1333 287.312 27.7333 287.312 32.48V59.52C287.312 64.2667 285.979 67.8667 283.312 70.32C280.645 72.72 276.885 73.9467 272.032 74H258.112V18ZM272.032 68.56C274.485 68.56 276.459 67.8667 277.952 66.48C279.499 65.04 280.272 63.1467 280.272 60.8V31.2C280.272 28.8533 279.499 26.9867 277.952 25.6C276.459 24.16 274.485 23.44 272.032 23.44H265.232V68.56H272.032ZM292.389 74L305.029 18H315.669L327.829 74H321.269L317.349 57.52H302.789L299.189 74H292.389ZM303.989 52.08H316.149L310.389 23.28H309.829L303.989 52.08ZM335.806 74V51.76L324.526 18H331.566L339.566 44.48L347.726 18H354.766L342.846 51.76V74H335.806Z" fill="black"/>
<path d="M18.72 74C13.8667 74 10.1067 72.7733 7.44 70.32C4.77333 67.8667 3.44 64.2667 3.44 59.52V32.48C3.44 27.7333 4.77333 24.1333 7.44 21.68C10.1067 19.2267 13.8667 18 18.72 18H29.44V23.28H18.72C16.2667 23.28 14.2667 24 12.72 25.44C11.2267 26.8267 10.48 28.6933 10.48 31.04V60.96C10.48 63.3067 11.2267 65.2 12.72 66.64C14.2667 68.0267 16.2667 68.72 18.72 68.72H29.44V74H18.72ZM32.6156 74L45.2556 18H55.8956L68.0556 74H61.4956L57.5756 57.52H43.0156L39.4156 74H32.6156ZM44.2156 52.08H56.3756L50.6156 23.28H50.0556L44.2156 52.08ZM78.8938 74V23.28H67.6938V18H97.1338V23.28H85.9338V74H78.8938ZM117.47 74C112.617 74 108.857 72.7733 106.19 70.32C103.523 67.8667 102.19 64.2667 102.19 59.52V32.48C102.19 27.7333 103.523 24.1333 106.19 21.68C108.857 19.2267 112.617 18 117.47 18H128.19V23.28H117.47C115.017 23.28 113.017 24 111.47 25.44C109.977 26.8267 109.23 28.6933 109.23 31.04V60.96C109.23 63.3067 109.977 65.2 111.47 66.64C113.017 68.0267 115.017 68.72 117.47 68.72H128.19V74H117.47ZM135.606 74V18H142.646V41.68H158.566V18H165.606V74H158.566V46.96H142.646V74H135.606Z" fill="black"/>
<path d="M235.608 60.388L240.64 61.585C238.405 64.142 236.647 65.979 236.647 65.979C234.411 67.976 232.653 69.253 232.653 69.253C229.938 70.931 228.1 71.33 228.1 71.33C226.423 71.57 224.949 71.572 224.949 71.572C224.767 71.537 224.586 71.504 224.406 71.469C223.444 71.288 222.553 70.985 222.01 70.811C221.572 70.669 221.331 70.542 221.331 70.542C220.046 69.853 219.313 68.933 219.313 68.933C218.595 67.895 218.275 66.857 218.275 66.857C217.957 65.738 217.796 64.141 217.796 64.141C217.557 61.825 217.317 59.428 217.317 59.428C216.758 47.366 216.519 33.547 216.519 33.547C216.439 24.442 216.359 21.326 216.359 21.326C216.838 20.448 217.478 19.649 217.478 19.649C218.276 19.329 219.713 18.93 219.713 18.93C223.388 18.451 226.184 18.211 226.184 18.211C227.359 18.211 228.854 17.838 229.739 18.85C230.138 19.069 230.458 19.153 230.837 18.9C231.677 18.34 231.68 17.575 231.804 16.639C231.871 16.125 231.976 15.536 231.937 15.016C231.777 12.859 231.696 11.581 231.696 11.581C231.436 11.284 231.092 10.845 230.699 10.719C229.782 10.426 229.284 11.142 228.661 11.661C228.182 12.06 227.623 12.06 227.623 12.06C223.949 11.9 221.393 11.421 221.393 11.421C218.518 10.862 217.16 10.702 217.16 10.702C216.361 10.303 216.042 9.344 216.042 9.344C215.64 8.387 215.64 7.029 215.64 7.029C215.64 6.071 215.799 5.192 215.799 5.192C216.278 4.713 216.359 4.153 216.359 4.153C216.199 3.035 215.799 2.157 215.799 2.157C215 1.278 214.281 0.639 214.281 0.639C213.403 0.16 212.524 0 212.524 0H211.826C211.826 0 210.948 0.16 210.069 0.639C210.069 0.639 209.35 1.278 208.552 2.157C208.552 2.157 208.152 3.035 207.992 4.153C207.992 4.153 208.072 4.713 208.552 5.192C208.552 5.192 208.712 6.071 208.712 7.029C208.712 7.029 208.712 8.387 208.312 9.346C208.312 9.346 207.993 10.304 207.194 10.704C207.194 10.704 205.836 10.864 202.96 11.423C202.96 11.423 200.404 11.902 196.73 12.062C196.73 12.062 196.17 12.062 195.691 11.663C195.268 11.311 194.801 10.726 194.229 10.641C193.551 10.54 193.055 11.127 192.656 11.583C192.656 11.583 192.576 12.861 192.417 15.018C192.443 15.644 192.491 16.277 192.583 16.898C192.645 17.32 192.642 17.862 192.846 18.245C193.119 18.76 194.066 19.478 194.614 18.852C195.446 17.902 197.043 18.213 198.169 18.213C198.169 18.213 200.965 18.452 204.639 18.932C204.639 18.932 206.077 19.331 206.876 19.651C206.876 19.651 207.515 20.449 207.994 21.328C207.994 21.328 207.914 24.444 207.834 33.549C207.834 33.549 207.594 47.369 207.035 59.43C207.035 59.43 206.795 61.826 206.556 64.143C206.556 64.143 206.395 65.74 206.076 66.859C206.076 66.859 205.757 67.897 205.038 68.935C205.038 68.935 204.307 69.855 203.021 70.544C203.021 70.544 202.78 70.671 202.342 70.813C201.798 70.987 200.908 71.291 199.946 71.471C199.766 71.505 199.585 71.538 199.404 71.574C199.404 71.574 197.929 71.572 196.252 71.332C196.252 71.332 194.415 70.933 191.699 69.255C191.699 69.255 189.942 67.978 187.705 65.981C187.705 65.981 185.948 64.144 183.711 61.587L188.744 60.39L177 54.996L178.079 72.13L180.235 65.9C180.235 65.9 181.194 68.448 183.11 71.532C184.166 73.229 185.746 75.017 187.064 76.803C187.064 76.803 189.07 79.348 192.456 80.997C194.71 82.094 197.659 82.291 200.724 82.914C200.724 82.914 205.085 82.725 208.512 84.951C210.171 86.029 211.018 88.606 212.176 90.268C213.334 88.606 214.18 86.029 215.84 84.951C219.267 82.724 223.627 82.914 223.627 82.914C226.691 82.291 229.642 82.094 231.895 80.997C235.28 79.348 237.287 76.803 237.287 76.803C238.606 75.018 240.186 73.23 241.241 71.532C243.157 68.448 244.117 65.9 244.117 65.9L246.273 72.13L247.352 54.996L235.608 60.388ZM212.176 5.174C211.449 5.174 210.861 4.585 210.861 3.859C210.861 3.132 211.449 2.544 212.176 2.544C212.902 2.544 213.491 3.133 213.491 3.859C213.491 4.585 212.902 5.174 212.176 5.174Z" fill="black"/>
<path d="M187.85 51.175C186.3 51.175 185.117 50.7833 184.3 50C183.483 49.2 183.075 48.0917 183.075 46.675V37.825C183.075 36.4083 183.483 35.3083 184.3 34.525C185.117 33.725 186.3 33.325 187.85 33.325C189.417 33.325 190.608 33.725 191.425 34.525C192.242 35.3083 192.65 36.4083 192.65 37.825V46.675C192.65 48.0917 192.242 49.2 191.425 50C190.608 50.7833 189.417 51.175 187.85 51.175ZM187.85 49.525C188.583 49.525 189.2 49.3167 189.7 48.9C190.2 48.4667 190.45 47.8667 190.45 47.1V37.4C190.45 36.6333 190.2 36.0417 189.7 35.625C189.2 35.1917 188.583 34.975 187.85 34.975C187.117 34.975 186.5 35.1917 186 35.625C185.517 36.0417 185.275 36.6333 185.275 37.4V47.1C185.275 47.8667 185.517 48.4667 186 48.9C186.5 49.3167 187.117 49.525 187.85 49.525ZM195.544 51V33.5H202.919V35.2H197.744V41.2H201.644V42.9H197.744V51H195.544Z" fill="#F5A623"/>
<path d="M222 52V36.15H218.5V34.5H227.7V36.15H224.2V52H222ZM230.03 52V34.5H232.23V41.9H237.205V34.5H239.405V52H237.205V43.55H232.23V52H230.03ZM243.067 52V34.5H250.692V36.2H245.267V41.8H249.667V43.5H245.267V50.3H250.942V52H243.067Z" fill="#F5A623"/>
<path d="M71.825 117.268V99.768H79.2V101.468H74.025V107.468H77.925V109.168H74.025V117.268H71.825ZM81.5174 99.768H86.1424C87.6757 99.768 88.8091 100.16 89.5424 100.943C90.2757 101.71 90.6424 102.868 90.6424 104.418C90.6424 105.585 90.4174 106.601 89.9674 107.468C89.5174 108.335 88.8757 108.935 88.0424 109.268L91.5174 117.268H89.3674L85.9674 109.593H83.6674V117.268H81.5174V99.768ZM85.4924 107.943C86.4424 107.943 87.1757 107.618 87.6924 106.968C88.2257 106.301 88.4924 105.451 88.4924 104.418C88.4924 103.435 88.2341 102.693 87.7174 102.193C87.2174 101.676 86.4757 101.418 85.4924 101.418H83.7174V107.943H85.4924ZM93.8465 117.268V99.768H101.471V101.468H96.0465V107.068H100.446V108.768H96.0465V115.568H101.721V117.268H93.8465ZM104.24 115.618H106.965C107.915 115.618 108.598 115.335 109.015 114.768C109.448 114.201 109.665 113.501 109.665 112.668C109.665 112.018 109.54 111.46 109.29 110.993C109.057 110.51 108.765 110.11 108.415 109.793C108.065 109.476 107.59 109.11 106.99 108.693C106.357 108.26 105.84 107.868 105.44 107.518C105.057 107.151 104.732 106.693 104.465 106.143C104.198 105.593 104.065 104.935 104.065 104.168C104.065 102.835 104.465 101.768 105.265 100.968C106.065 100.168 107.173 99.768 108.59 99.768H110.615V101.418H108.69C107.89 101.418 107.282 101.676 106.865 102.193C106.448 102.71 106.24 103.31 106.24 103.993C106.24 104.66 106.432 105.21 106.815 105.643C107.198 106.076 107.782 106.568 108.565 107.118C109.282 107.635 109.857 108.101 110.29 108.518C110.723 108.918 111.09 109.451 111.39 110.118C111.707 110.785 111.865 111.585 111.865 112.518C111.865 114.085 111.415 115.268 110.515 116.068C109.632 116.868 108.415 117.268 106.865 117.268H104.24V115.618ZM114.305 117.268V99.768H116.505V107.168H121.48V99.768H123.68V117.268H121.48V108.818H116.505V117.268H114.305ZM130.802 115.618H133.527C134.477 115.618 135.161 115.335 135.577 114.768C136.011 114.201 136.227 113.501 136.227 112.668C136.227 112.018 136.102 111.46 135.852 110.993C135.619 110.51 135.327 110.11 134.977 109.793C134.627 109.476 134.152 109.11 133.552 108.693C132.919 108.26 132.402 107.868 132.002 107.518C131.619 107.151 131.294 106.693 131.027 106.143C130.761 105.593 130.627 104.935 130.627 104.168C130.627 102.835 131.027 101.768 131.827 100.968C132.627 100.168 133.736 99.768 135.152 99.768H137.177V101.418H135.252C134.452 101.418 133.844 101.676 133.427 102.193C133.011 102.71 132.802 103.31 132.802 103.993C132.802 104.66 132.994 105.21 133.377 105.643C133.761 106.076 134.344 106.568 135.127 107.118C135.844 107.635 136.419 108.101 136.852 108.518C137.286 108.918 137.652 109.451 137.952 110.118C138.269 110.785 138.427 111.585 138.427 112.518C138.427 114.085 137.977 115.268 137.077 116.068C136.194 116.868 134.977 117.268 133.427 117.268H130.802V115.618ZM140.868 117.268V99.768H148.493V101.468H143.068V107.068H147.468V108.768H143.068V115.568H148.743V117.268H140.868ZM150.236 117.268L154.186 99.768H157.511L161.311 117.268H159.261L158.036 112.118H153.486L152.361 117.268H150.236ZM153.861 110.418H157.661L155.861 101.418H155.686L153.861 110.418ZM163.646 117.268V99.768H171.021V101.468H165.846V107.468H169.746V109.168H165.846V117.268H163.646ZM177.364 117.443C175.814 117.443 174.63 117.051 173.814 116.268C172.997 115.468 172.589 114.36 172.589 112.943V104.093C172.589 102.676 172.997 101.576 173.814 100.793C174.63 99.993 175.814 99.593 177.364 99.593C178.93 99.593 180.122 99.993 180.939 100.793C181.755 101.576 182.164 102.676 182.164 104.093V112.943C182.164 114.36 181.755 115.468 180.939 116.268C180.122 117.051 178.93 117.443 177.364 117.443ZM177.364 115.793C178.097 115.793 178.714 115.585 179.214 115.168C179.714 114.735 179.964 114.135 179.964 113.368V103.668C179.964 102.901 179.714 102.31 179.214 101.893C178.714 101.46 178.097 101.243 177.364 101.243C176.63 101.243 176.014 101.46 175.514 101.893C175.03 102.31 174.789 102.901 174.789 103.668V113.368C174.789 114.135 175.03 114.735 175.514 115.168C176.014 115.585 176.63 115.793 177.364 115.793ZM189.082 117.443C187.532 117.443 186.349 117.051 185.532 116.268C184.716 115.468 184.307 114.36 184.307 112.943V104.093C184.307 102.676 184.716 101.576 185.532 100.793C186.349 99.993 187.532 99.593 189.082 99.593C190.649 99.593 191.841 99.993 192.657 100.793C193.474 101.576 193.882 102.676 193.882 104.093V112.943C193.882 114.36 193.474 115.468 192.657 116.268C191.841 117.051 190.649 117.443 189.082 117.443ZM189.082 115.793C189.816 115.793 190.432 115.585 190.932 115.168C191.432 114.735 191.682 114.135 191.682 113.368V103.668C191.682 102.901 191.432 102.31 190.932 101.893C190.432 101.46 189.816 101.243 189.082 101.243C188.349 101.243 187.732 101.46 187.232 101.893C186.749 102.31 186.507 102.901 186.507 103.668V113.368C186.507 114.135 186.749 114.735 187.232 115.168C187.732 115.585 188.349 115.793 189.082 115.793ZM196.751 99.768H201.101C202.618 99.768 203.793 100.151 204.626 100.918C205.46 101.685 205.876 102.81 205.876 104.293V112.743C205.876 114.226 205.46 115.351 204.626 116.118C203.793 116.868 202.618 117.251 201.101 117.268H196.751V99.768ZM201.101 115.568C201.868 115.568 202.485 115.351 202.951 114.918C203.435 114.468 203.676 113.876 203.676 113.143V103.893C203.676 103.16 203.435 102.576 202.951 102.143C202.485 101.693 201.868 101.468 201.101 101.468H198.976V115.568H201.101ZM212.298 117.268V99.768H215.623L218.973 110.118H219.148L222.573 99.768H225.773V117.268H223.573V102.393L220.223 112.618H217.848L214.498 102.368V117.268H212.298ZM227.849 117.268L231.799 99.768H235.124L238.924 117.268H236.874L235.649 112.118H231.099L229.974 117.268H227.849ZM231.474 110.418H235.274L233.474 101.418H233.299L231.474 110.418ZM241.259 99.768H245.884C247.417 99.768 248.55 100.16 249.284 100.943C250.017 101.71 250.384 102.868 250.384 104.418C250.384 105.585 250.159 106.601 249.709 107.468C249.259 108.335 248.617 108.935 247.784 109.268L251.259 117.268H249.109L245.709 109.593H243.409V117.268H241.259V99.768ZM245.234 107.943C246.184 107.943 246.917 107.618 247.434 106.968C247.967 106.301 248.234 105.451 248.234 104.418C248.234 103.435 247.975 102.693 247.459 102.193C246.959 101.676 246.217 101.418 245.234 101.418H243.459V107.943H245.234ZM253.588 117.268V99.768H255.713V107.418L260.888 99.768H263.063L257.963 107.568L263.813 117.268H261.588L256.688 109.118L255.713 110.368V117.268H253.588ZM265.697 117.268V99.768H273.322V101.468H267.897V107.068H272.297V108.768H267.897V115.568H273.572V117.268H265.697ZM278.565 117.268V101.418H275.065V99.768H284.265V101.418H280.765V117.268H278.565Z" fill="#F5A623"/>
<line x1="62" y1="104.768" x2="-4.37114e-08" y2="104.768" stroke="black"/>
<line x1="62" y1="112.768" x2="-4.37114e-08" y2="112.768" stroke="black"/>
<line x1="354" y1="104.768" x2="292" y2="104.768" stroke="black"/>
<line x1="354" y1="112.768" x2="292" y2="112.768" stroke="black"/>
</svg>
